<svg width="182" height="45" viewBox="0 0 182 45" fill="none" xmlns="http://www.w3.org/2000/svg">
<path d="M8.692 30.248L0.844 22.184L8.692 14.12H15.028L7.18 22.184L15.028 30.248H8.692ZM30.2914 9.872C32.9314 9.872 35.2474 10.388 37.2394 11.42C39.2554 12.452 40.8034 13.928 41.8834 15.848C42.9874 17.744 43.5394 19.952 43.5394 22.472C43.5394 24.992 42.9874 27.2 41.8834 29.096C40.8034 30.968 39.2554 32.42 37.2394 33.452C35.2474 34.484 32.9314 35 30.2914 35H21.5074V9.872H30.2914ZM30.1114 30.716C32.7514 30.716 34.7914 29.996 36.2314 28.556C37.6714 27.116 38.3914 25.088 38.3914 22.472C38.3914 19.856 37.6714 17.816 36.2314 16.352C34.7914 14.864 32.7514 14.12 30.1114 14.12H26.5474V30.716H30.1114ZM62.6481 20.024V24.272H47.3841V20.024H62.6481ZM75.9324 35.324C74.3004 35.324 72.8364 35.036 71.5404 34.46C70.2444 33.86 69.2124 33.056 68.4444 32.048C67.7004 31.04 67.2924 29.924 67.2204 28.7H72.2964C72.3924 29.468 72.7644 30.104 73.4124 30.608C74.0844 31.112 74.9124 31.364 75.8964 31.364C76.8564 31.364 77.6004 31.172 78.1284 30.788C78.6804 30.404 78.9564 29.912 78.9564 29.312C78.9564 28.664 78.6204 28.184 77.9484 27.872C77.3004 27.536 76.2564 27.176 74.8164 26.792C73.3284 26.432 72.1044 26.06 71.1444 25.676C70.2084 25.292 69.3924 24.704 68.6964 23.912C68.0244 23.12 67.6884 22.052 67.6884 20.708C67.6884 19.604 68.0004 18.596 68.6244 17.684C69.2724 16.772 70.1844 16.052 71.3604 15.524C72.5604 14.996 73.9644 14.732 75.5724 14.732C77.9484 14.732 79.8444 15.332 81.2604 16.532C82.6764 17.708 83.4564 19.304 83.6004 21.32H78.7764C78.7044 20.528 78.3684 19.904 77.7684 19.448C77.1924 18.968 76.4124 18.728 75.4284 18.728C74.5164 18.728 73.8084 18.896 73.3044 19.232C72.8244 19.568 72.5844 20.036 72.5844 20.636C72.5844 21.308 72.9204 21.824 73.5924 22.184C74.2644 22.52 75.3084 22.868 76.7244 23.228C78.1644 23.588 79.3524 23.96 80.2884 24.344C81.2244 24.728 82.0284 25.328 82.7004 26.144C83.3964 26.936 83.7564 27.992 83.7804 29.312C83.7804 30.464 83.4564 31.496 82.8084 32.408C82.1844 33.32 81.2724 34.04 80.0724 34.568C78.8964 35.072 77.5164 35.324 75.9324 35.324ZM92.9576 17.936C93.6056 17.024 94.4936 16.268 95.6216 15.668C96.7736 15.044 98.0816 14.732 99.5456 14.732C101.25 14.732 102.786 15.152 104.154 15.992C105.546 16.832 106.638 18.032 107.43 19.592C108.246 21.128 108.654 22.916 108.654 24.956C108.654 26.996 108.246 28.808 107.43 30.392C106.638 31.952 105.546 33.164 104.154 34.028C102.786 34.892 101.25 35.324 99.5456 35.324C98.0816 35.324 96.7856 35.024 95.6576 34.424C94.5536 33.824 93.6536 33.068 92.9576 32.156V44.504H87.9176V15.056H92.9576V17.936ZM103.506 24.956C103.506 23.756 103.254 22.724 102.75 21.86C102.27 20.972 101.622 20.3 100.806 19.844C100.014 19.388 99.1496 19.16 98.2136 19.16C97.3016 19.16 96.4376 19.4 95.6216 19.88C94.8296 20.336 94.1816 21.008 93.6776 21.896C93.1976 22.784 92.9576 23.828 92.9576 25.028C92.9576 26.228 93.1976 27.272 93.6776 28.16C94.1816 29.048 94.8296 29.732 95.6216 30.212C96.4376 30.668 97.3016 30.896 98.2136 30.896C99.1496 30.896 100.014 30.656 100.806 30.176C101.622 29.696 102.27 29.012 102.75 28.124C103.254 27.236 103.506 26.18 103.506 24.956ZM121.172 35.324C119.252 35.324 117.524 34.904 115.988 34.064C114.452 33.2 113.24 31.988 112.352 30.428C111.488 28.868 111.056 27.068 111.056 25.028C111.056 22.988 111.5 21.188 112.388 19.628C113.3 18.068 114.536 16.868 116.096 16.028C117.656 15.164 119.396 14.732 121.316 14.732C123.236 14.732 124.976 15.164 126.536 16.028C128.096 16.868 129.32 18.068 130.208 19.628C131.12 21.188 131.576 22.988 131.576 25.028C131.576 27.068 131.108 28.868 130.172 30.428C129.26 31.988 128.012 33.2 126.428 34.064C124.868 34.904 123.116 35.324 121.172 35.324ZM121.172 30.932C122.084 30.932 122.936 30.716 123.728 30.284C124.544 29.828 125.192 29.156 125.672 28.268C126.152 27.38 126.392 26.3 126.392 25.028C126.392 23.132 125.888 21.68 124.88 20.672C123.896 19.64 122.684 19.124 121.244 19.124C119.804 19.124 118.592 19.64 117.608 20.672C116.648 21.68 116.168 23.132 116.168 25.028C116.168 26.924 116.636 28.388 117.572 29.42C118.532 30.428 119.732 30.932 121.172 30.932ZM141.141 19.196V28.844C141.141 29.516 141.297 30.008 141.609 30.32C141.945 30.608 142.497 30.752 143.265 30.752H145.605V35H142.437C138.189 35 136.065 32.936 136.065 28.808V19.196H133.689V15.056H136.065V10.124H141.141V15.056H145.605V19.196H141.141ZM162.73 0.907999L153.01 41.516H148.078L157.798 0.907999H162.73ZM167.458 14.12H173.83L181.678 22.184L173.83 30.248H167.458L175.342 22.184L167.458 14.12Z" fill="url(#paint0_linear)"/>
<defs>
<linearGradient id="paint0_linear" x1="-17.5" y1="22" x2="307.5" y2="22" gradientUnits="userSpaceOnUse">
<stop stop-color="#FF00FF"/>
<stop offset="0.9999" stop-color="#FF00FF" stop-opacity="0.0208333"/>
<stop offset="1" stop-color="#FF00FF"/>
</linearGradient>
</defs>
</svg>
