<svg height="496pt" viewBox="0 -2 496.768 496" width="496pt" xmlns="http://www.w3.org/2000/svg"><path d="m12.894531 489.839844c-7.117187-5.230469-8.671875-15.246094-3.4375-22.367188l159.597657-217.632812-93.359376-127.3125 25.808594-18.941406 107.25 146.253906-173.472656 236.558594c-5.234375 7.121093-15.25 8.671874-22.386719 3.441406zm43.875-393.121094-18.914062-25.808594 25.792969-18.941406 18.945312 25.808594zm-37.839843-51.613281-18.929688-25.808594 25.808594-18.914063 18.925781 25.808594zm0 0" fill="#ff7043"/><path d="m300.894531 489.839844c-7.117187-5.230469-8.671875-15.246094-3.4375-22.367188l159.597657-217.632812-159.582032-217.632813c-5.234375-7.117187-3.679687-17.136719 3.4375-22.367187 7.136719-5.230469 17.152344-3.695313 22.386719 3.441406l173.472656 236.558594-173.488281 236.558594c-5.234375 7.121093-15.25 8.671874-22.386719 3.441406zm0 0" fill="#fdd835"/><path d="m156.894531 489.839844c-7.117187-5.230469-8.671875-15.246094-3.4375-22.367188l159.597657-217.632812-159.582032-217.632813c-5.234375-7.117187-3.679687-17.136719 3.4375-22.367187 7.136719-5.230469 17.152344-3.695313 22.386719 3.441406l173.472656 236.558594-173.488281 236.558594c-5.234375 7.121093-15.25 8.671874-22.386719 3.441406zm0 0" fill="#fbc02d"/></svg>